<svg xmlns="http://www.w3.org/2000/svg" viewBox="0 0 750 500"><defs><style>.cls-1{fill:#a4e0ea;}.cls-2{fill:#77bdd1;}.cls-3,.cls-4{fill:#fff;}.cls-3{opacity:0.3;}.cls-5{fill:#e8f4e9;}.cls-6{fill:#fedb19;}.cls-7{fill:#febf14;}.cls-8{fill:#d2e9d4;}.cls-9{fill:#98bea9;}.cls-10{fill:#ff8137;}.cls-11{fill:#ff6739;}.cls-12{fill:#365f49;}.cls-13{fill:#c98c42;}.cls-14{fill:none;}</style></defs><title>Asset 1</title><g id="Layer_2" data-name="Layer 2"><g id="BACKGROUND_2" data-name="BACKGROUND 2"><rect class="cls-1" width="750" height="500"/><g id="shadows"><path class="cls-2" d="M239.24,304.28a5.5,5.5,0,0,0-7.78,0l-24.64,24.64h0l-1.35,1.34a3.44,3.44,0,0,0-.25,4.84l23.26,23.26L250.14,380h0l1.6,1.6a3.44,3.44,0,0,0,4.84-.26l13.66-13.66h0l12.32-12.32a5.5,5.5,0,0,0,0-7.78Z"/><path class="cls-2" d="M417.32,318a8.5,8.5,0,1,0,12,0A8.5,8.5,0,0,0,417.32,318Z"/><circle class="cls-2" cx="431.93" cy="151.27" r="10.59"/><circle class="cls-2" cx="315.69" cy="382.5" r="10.59"/><path class="cls-2" d="M532.62,280.28a9,9,0,1,0,0,12.78A9,9,0,0,0,532.62,280.28Z"/><circle class="cls-2" cx="414.35" cy="102.67" r="9.2"/><path class="cls-2" d="M540.06,123.5l.44.3h0l.43.29a6.43,6.43,0,0,0,8.93-1.74l7-10.32h0l6.66-9.89h0l.3-.44a6.44,6.44,0,0,0-1.74-8.93l-.89-.6a6.44,6.44,0,0,0-8.93,1.74l-13.92,20.65A6.44,6.44,0,0,0,540.06,123.5Z"/><path class="cls-2" d="M418.85,380.66h-7.66l1.4-1.39,1-1a21.75,21.75,0,0,0-5.05-33.78,20.75,20.75,0,0,0-3.16-1.49,21.63,21.63,0,0,0-5.65-1.29c-.66-.06-1.32-.09-2-.09a21.76,21.76,0,0,0-21.76,21.76c0-.45,0-.89,0-1.33a.34.34,0,0,0,0-.1c0-.43-.07-.85-.12-1.26h0a21.75,21.75,0,1,0-37.44,17.58l0,0,.95.95.07.06,3.4,3.41h-8.89a1.33,1.33,0,1,0,0,2.66h11.55l30.51,30.51,32.59-32.58h10.32a1.34,1.34,0,1,0,0-2.67Z"/><path class="cls-2" d="M299.82,162.55h46.3a4,4,0,0,0,4.05-4.05V99.65a4,4,0,0,0-4.05-4.05H333.88v-.77a.91.91,0,0,0-.9-.91h-6.8a3.92,3.92,0,0,0-7.83,0h-6.8a.9.9,0,0,0-.9.91v.77H299.82a5.13,5.13,0,0,0-5.13,5.13v56.7A5.13,5.13,0,0,0,299.82,162.55Z"/><path class="cls-2" d="M535.17,204l1.09.7-6.42,10-.79-.5a16.23,16.23,0,0,1-27.31-17.56l-.79-.51,6.42-10,1.09.7a2.62,2.62,0,0,0,3.6-.78l.23-.37a2.59,2.59,0,0,0-.78-3.59l-5.16-3.32-3.05,4.74h0l-6.42,10-.79-.51a23,23,0,0,0,5.33,30.6l-8,12.38a19.59,19.59,0,1,0,33,21.19l4.28-6.66a9.58,9.58,0,0,1,8.37-4.39,9.54,9.54,0,0,0,2.78,9,9.65,9.65,0,0,0,3.22,2,9.58,9.58,0,0,0,8.5-1,6.86,6.86,0,0,0,.64-.46,8.81,8.81,0,0,0,1.12-1,9.53,9.53,0,0,0-13.91-13,10.28,10.28,0,0,0-.67.81,13.43,13.43,0,0,0-13.28,6l-4.28,6.65a15.75,15.75,0,1,1-26.5-17l8-12.38a23,23,0,0,0,30.05-7.86l-.79-.51,6.42-10h0l3-4.74L539.31,200h0l-1.09-.71a2.61,2.61,0,0,0-3.6.79l-.23.36A2.6,2.6,0,0,0,535.17,204Z"/><path class="cls-2" d="M213.06,117a23,23,0,0,0,30.82,3.81L253.41,132a19.59,19.59,0,0,0,29.87-25.36l-5.13-6a9.58,9.58,0,0,1-1.76-9.28,9.61,9.61,0,1,0-3-2.7,13.41,13.41,0,0,0,1.88,14.46l5.12,6a15.75,15.75,0,0,1-24,20.39L246.8,118.3a23,23,0,0,0,1.24-31l-.72.61L236,74.53l-3.69,3.14h0l-1,.84a2.6,2.6,0,0,0-.3,3.66l.28.33a2.6,2.6,0,0,0,3.67.3l1-.84L243.64,91l-.72.61a16.23,16.23,0,0,1-24.74,21l-.72.61-7.69-9,1-.84a2.6,2.6,0,0,0,.3-3.67l-.28-.33a2.6,2.6,0,0,0-3.67-.3l-1,.84h0L202.44,103l11.33,13.35Z"/><path class="cls-2" d="M211,176.4c0,.47-.06.92-.06,1.39V216.9a15.28,15.28,0,0,0,15.3,15.31h23.23a15.31,15.31,0,0,0,15.3-15.31V177.79c0-.47,0-.91-.06-1.39a15.26,15.26,0,0,0-2.89-7.61,15.43,15.43,0,0,0-3.85-3.71,15.19,15.19,0,0,0-8.23-2.58h1.14v-3.29h2.23a2,2,0,0,0,2-2V145.37a2,2,0,0,0-2-2H223.25a2.71,2.71,0,0,0-2.71,2.71v10.44a2.72,2.72,0,0,0,2.71,2.72h1.54v3.29H226A15.31,15.31,0,0,0,211,176.4Z"/><path class="cls-2" d="M261,285.75l3.18,3.18a.13.13,0,0,0,.18,0l3.72-3.71,3.52-3.53.09-.09-.09-.09h0l-3.18-3.18a1.7,1.7,0,0,0-2.4,0h0L264.35,280l-11.19-11.18a1.05,1.05,0,0,0-1.5,0l-.12.12a1.06,1.06,0,0,0,0,1.51l11.18,11.18-1.7,1.7A1.69,1.69,0,0,0,261,285.75Z"/><path class="cls-2" d="M305.93,337.42l.37.37a3.18,3.18,0,0,0,4.48,0l9.69-9.69a3.16,3.16,0,0,0,0-4.48l-.37-.37a3.16,3.16,0,0,0-4.48,0l-2.45,2.45-5.12-5.12,8.77-8.78a3.15,3.15,0,0,0,0-4.47l-.37-.37a3.16,3.16,0,0,0-4.48,0l-.7.69-28.83-28.83a5.63,5.63,0,0,0-7.95,0l-13,13a5.63,5.63,0,0,0,0,8l28.83,28.83-.7.69a3.18,3.18,0,0,0,0,4.48l.37.37a3.16,3.16,0,0,0,4.48,0l8.77-8.77,5.12,5.12-2.45,2.46A3.18,3.18,0,0,0,305.93,337.42Z"/><path class="cls-2" d="M240.67,274.26l.89-1.83a12.26,12.26,0,0,0-5.69-16.37L197.52,237.5a12.24,12.24,0,0,0-16.36,5.69l-.89,1.83A12.26,12.26,0,0,0,186,261.39L224.31,280A12.24,12.24,0,0,0,240.67,274.26Z"/><rect class="cls-2" x="354.44" y="147.58" width="67.11" height="26.54" rx="12.25" transform="translate(31.45 382.86) rotate(-54.43)"/><path class="cls-2" d="M458.35,166.26h65.76a7.19,7.19,0,0,0,7.19-7.19V117a7.19,7.19,0,0,0-7.19-7.2H506.89v-2.27a7.21,7.21,0,0,0-7.21-7.21H483.13a7.2,7.2,0,0,0-7.2,7.21v2.27H458.35a7.2,7.2,0,0,0-7.2,7.2v42.06A7.19,7.19,0,0,0,458.35,166.26Zm23-58.72a1.79,1.79,0,0,1,1.79-1.79h16.55a1.79,1.79,0,0,1,1.79,1.79v2.27H481.34Z"/><path class="cls-2" d="M563.92,283.79a6,6,0,0,0-8.06,2.44L541,314.05a8.39,8.39,0,1,0,10.52,5.63l14.89-27.83A6,6,0,0,0,563.92,283.79Z"/><path class="cls-2" d="M506,358v4a13.95,13.95,0,1,1-27.89,0V349.63a2.93,2.93,0,0,0,2.75-2.92v-3.92a35.36,35.36,0,0,0,6.36-1.22L500,337.83A8.17,8.17,0,0,0,505.9,330V286.87a8.17,8.17,0,0,0-8.18-8.17H456.67a8.17,8.17,0,0,0-8.18,8.17V330a8.19,8.19,0,0,0,5.88,7.85l12.81,3.74a35.39,35.39,0,0,0,6,1.19v3.95a2.93,2.93,0,0,0,2.76,2.92v12.42a16.11,16.11,0,1,0,32.22,0v-4a14,14,0,0,1,13.94-13.94h2v-2.17h-2A16.13,16.13,0,0,0,506,358Z"/><path class="cls-2" d="M582.06,194.4a2.77,2.77,0,0,0-2.83-2.71l-4.8.11a18.66,18.66,0,0,0,3.06-9.59,8.12,8.12,0,0,0-3.55-6.58c-.21-.14-.43-.27-.65-.39a7.65,7.65,0,0,0-3.7-.89,7.9,7.9,0,0,0-7.55,8.2,18.57,18.57,0,0,0,3.47,9.44l-4.8.1a2.78,2.78,0,0,0-2.71,2.83v.46a2.76,2.76,0,0,0,2.83,2.71l2.52-.05.48,22.22a6.75,6.75,0,0,0,4.62,6.26l.07,3.47a2.26,2.26,0,0,0,2.11,2.2h.2a2.25,2.25,0,0,0,2.21-2.3l-.07-3.48a6.74,6.74,0,0,0,4.34-6.45l-.48-22.22,2.52-.06a2.77,2.77,0,0,0,2.71-2.83Z"/><path class="cls-2" d="M180.37,215.31a8.32,8.32,0,0,0,2.16-1.44,8.91,8.91,0,0,0,1.92-2.48l11.77-23a8.75,8.75,0,0,0-3.8-11.76h0a8.74,8.74,0,0,0-11.75,3.8l-5.89,11.5h0l-5.88,11.51a8.72,8.72,0,0,0,11.48,11.88Z"/><path class="cls-2" d="M372,131.92a7.23,7.23,0,0,0,10.19-.32,7.19,7.19,0,0,0,1.86-6,7.33,7.33,0,0,0-2.18-4.14l-15.53-14.6a7.2,7.2,0,0,0-10.18.32h0a7.2,7.2,0,0,0,.31,10.18Z"/><path class="cls-2" d="M463.22,387.6a7.78,7.78,0,0,0-.5-2.21,7.64,7.64,0,0,0-1.46-2.37l-15.18-16.77a7.66,7.66,0,0,0-10.81-.54h0a7.65,7.65,0,0,0-.53,10.8l7.59,8.38h0l7.59,8.39a7.65,7.65,0,0,0,13.3-5.69Z"/></g><g id="pattern"><path class="cls-3" d="M471.9,390.5a5.18,5.18,0,1,0,7.32,0A5.19,5.19,0,0,0,471.9,390.5Z"/><path class="cls-3" d="M200.2,149.8a5.18,5.18,0,1,0,7.32,0A5.19,5.19,0,0,0,200.2,149.8Z"/><path class="cls-3" d="M441,333.81a5.18,5.18,0,1,0,7.33,0A5.19,5.19,0,0,0,441,333.81Z"/><path class="cls-3" d="M480.15,253.36a5.18,5.18,0,1,0,7.32,0A5.18,5.18,0,0,0,480.15,253.36Z"/><path class="cls-3" d="M261.23,51.88a5.18,5.18,0,1,0,7.33,0A5.18,5.18,0,0,0,261.23,51.88Z"/><circle class="cls-3" cx="153.24" cy="188.91" r="5.18"/><path class="cls-3" d="M191.94,384.22a5.18,5.18,0,1,0,7.32,0A5.17,5.17,0,0,0,191.94,384.22Z"/><path class="cls-3" d="M178.75,295.93a5.18,5.18,0,1,0,7.33,0A5.19,5.19,0,0,0,178.75,295.93Z"/><path class="cls-3" d="M191.94,217.12a5.18,5.18,0,1,0,7.32,0A5.16,5.16,0,0,0,191.94,217.12Z"/><path class="cls-3" d="M234.29,284.28a5.18,5.18,0,1,0,7.32,0A5.17,5.17,0,0,0,234.29,284.28Z"/><path class="cls-3" d="M265.06,248.18a5.18,5.18,0,1,0,7.33,0A5.18,5.18,0,0,0,265.06,248.18Z"/><path class="cls-3" d="M335.51,419.15a5.18,5.18,0,1,0,7.33,0A5.19,5.19,0,0,0,335.51,419.15Z"/><path class="cls-3" d="M418.83,403a5.18,5.18,0,1,0,7.32,0A5.18,5.18,0,0,0,418.83,403Z"/><path class="cls-3" d="M295.19,358a5.18,5.18,0,1,0,7.33,0A5.18,5.18,0,0,0,295.19,358Z"/><path class="cls-3" d="M520.15,311.2a5.18,5.18,0,1,0,7.32,0A5.18,5.18,0,0,0,520.15,311.2Z"/><path class="cls-3" d="M574,245a5.18,5.18,0,1,0,7.33,0A5.19,5.19,0,0,0,574,245Z"/><path class="cls-3" d="M485.33,172a5.18,5.18,0,1,0,7.32,0A5.19,5.19,0,0,0,485.33,172Z"/><path class="cls-3" d="M206.89,57.06a5.18,5.18,0,1,0,7.32,0A5.16,5.16,0,0,0,206.89,57.06Z"/><path class="cls-3" d="M446.76,82.25a5.18,5.18,0,1,0,7.32,0A5.18,5.18,0,0,0,446.76,82.25Z"/><path class="cls-3" d="M278.47,158.2a5.18,5.18,0,1,0,7.33,0A5.18,5.18,0,0,0,278.47,158.2Z"/><path class="cls-3" d="M499.33,60a5.18,5.18,0,1,0,7.32,0A5.19,5.19,0,0,0,499.33,60Z"/><path class="cls-3" d="M588.18,290.14a5.18,5.18,0,1,0,7.33,0A5.19,5.19,0,0,0,588.18,290.14Z"/><path class="cls-3" d="M542.69,373.94h0l8.07-7.11,8.7-7.64a5.47,5.47,0,0,0,.5-7.72l-.55-.61h0l-.53-.61a5.48,5.48,0,0,0-7.72-.49l-8.69,7.65-8.08,7.1h0l-.62.55a5.46,5.46,0,0,0-.5,7.71l1.1,1.24a5.46,5.46,0,0,0,7.71.5Z"/><path class="cls-3" d="M165.17,334.34h0l7.63,7.59,8.2,8.18a5.47,5.47,0,0,0,7.73,0l.58-.58h0l.58-.58a5.47,5.47,0,0,0,0-7.73L181.67,333l-7.62-7.59h0l-.58-.59a5.47,5.47,0,0,0-7.73,0L164.57,326a5.47,5.47,0,0,0,0,7.73Z"/><path class="cls-3" d="M149.32,246.34h0l8.07-7.1,8.7-7.65a5.46,5.46,0,0,0,.5-7.71l-.55-.62h0l-.54-.61a5.46,5.46,0,0,0-7.71-.5l-8.7,7.65L141,236.9h0l-.62.54a5.46,5.46,0,0,0-.5,7.71l1.09,1.24a5.47,5.47,0,0,0,7.72.5Z"/><path class="cls-3" d="M549.06,66.6h0l8.16,7L566,81.15a5.47,5.47,0,0,0,7.71-.59l.53-.62h0l.53-.62a5.47,5.47,0,0,0-.58-7.71l-8.8-7.54-8.16-7h0l-.62-.53a5.46,5.46,0,0,0-7.71.58l-1.08,1.26a5.46,5.46,0,0,0,.59,7.7Z"/><path class="cls-3" d="M584.88,158.48h0l7.82,7.39,8.41,8a5.48,5.48,0,0,0,7.73-.22l.56-.6h0l.56-.59a5.46,5.46,0,0,0-.21-7.72l-8.41-8-7.82-7.4h0l-.6-.57a5.46,5.46,0,0,0-7.72.22l-1.14,1.2a5.46,5.46,0,0,0,.22,7.72Z"/><path class="cls-3" d="M546,145.46l-.42.42a2,2,0,0,0,0,2.8l6.6,6.6a2,2,0,0,0,2.8,0l.42-.42a2,2,0,0,0,0-2.79l-1.71-1.72L557,147l5.9,5.91a2,2,0,0,0,2.8,0l.42-.42a2,2,0,0,0,0-2.8l-.55-.55,19.28-19.28a3.5,3.5,0,0,0,0-5l-2-2h0l2.17-2.17h0l.11-.1a1,1,0,0,0,0-1.38l-.11-.11h0L583.94,118l7.45-7.45a.66.66,0,0,0,0-.94l-.14-.14a.66.66,0,0,0-.94,0l-7.45,7.45.6.6h0l-.6-.6-1.23-1.23a1,1,0,0,0-1.39,0L578,117.92l-2-2a3.52,3.52,0,0,0-5,0L551.72,135.2l-.55-.55a2,2,0,0,0-2.79,0l-.43.42a2,2,0,0,0,0,2.8l5.91,5.91-3.4,3.4-1.71-1.72A2,2,0,0,0,546,145.46Z"/><path class="cls-3" d="M349.46,451.52l-.42.42a2,2,0,0,0,0,2.8l6.61,6.6a2,2,0,0,0,2.79,0l.43-.42a2,2,0,0,0,0-2.79l-1.72-1.72,3.4-3.4,5.91,5.91a2,2,0,0,0,2.79,0l.42-.42a2,2,0,0,0,0-2.8l-.55-.55,19.29-19.28a3.52,3.52,0,0,0,0-5l-2-2h0l2.17-2.17h0l.1-.1a1,1,0,0,0,0-1.39l-.1-.1h0L387.45,424l7.45-7.45a.65.65,0,0,0,0-.93l-.14-.15a.66.66,0,0,0-.94,0l-7.45,7.45.6.61h0l-.6-.61-1.23-1.23a1,1,0,0,0-1.38,0L381.48,424l-2-2a3.49,3.49,0,0,0-5,0l-19.29,19.28-.55-.55a2,2,0,0,0-2.79,0l-.43.42a2,2,0,0,0,0,2.8l5.91,5.9-3.4,3.4-1.71-1.71A2,2,0,0,0,349.46,451.52Z"/><path class="cls-3" d="M196.83,116.25a6,6,0,0,0-8.07,2.45l-14.89,27.82a8.4,8.4,0,1,0,10.51,5.63l14.89-27.83A6,6,0,0,0,196.83,116.25Z"/><path class="cls-3" d="M300.15,417.68l1.8,1.58A8.29,8.29,0,0,1,291,431.71l-5.54-4.88a1.64,1.64,0,0,0-.16-2.31l-1.82-1.6a21.66,21.66,0,0,0,1.95-3.33l3.36-7.18a4.86,4.86,0,0,0-1.2-5.71l-19.23-16.92a4.86,4.86,0,0,0-6.86.44l-16.12,18.32a4.85,4.85,0,0,0,.44,6.86l19.23,16.93a4.87,4.87,0,0,0,5.82.45l6.7-4.24a20.81,20.81,0,0,0,2.88-2.22l1.84,1.62a1.64,1.64,0,0,0,2.32-.14l5.54,4.87a9.58,9.58,0,0,0,12.65-14.38l-1.8-1.58a8.3,8.3,0,0,1-.75-11.7l.8-.91-1-.85-.79.91A9.59,9.59,0,0,0,300.15,417.68Z"/><path class="cls-3" d="M321.12,74.45l-2,1.31A8.29,8.29,0,1,1,310,61.92l6.16-4.06a1.64,1.64,0,0,0,2.27.46l2-1.34a20.63,20.63,0,0,0,2.69,2.76l6,5.13a4.87,4.87,0,0,0,5.82.36l21.4-14.1a4.86,4.86,0,0,0,1.38-6.73L344.38,24a4.85,4.85,0,0,0-6.73-1.39l-21.4,14.1a4.85,4.85,0,0,0-2,5.48l2.33,7.58A21.1,21.1,0,0,0,318,53.16l-2.05,1.35a1.64,1.64,0,0,0-.47,2.27l-6.16,4.06a9.58,9.58,0,0,0,10.54,16l2-1.32a8.32,8.32,0,0,1,11.49,2.36l.66,1,1.07-.71-.66-1A9.59,9.59,0,0,0,321.12,74.45Z"/><path class="cls-3" d="M379.09,65a2.6,2.6,0,0,0-3.67.3l-3.21,3.79a18.53,18.53,0,0,0-5.15-8.64,8.07,8.07,0,0,0-7.28-1.71,7.46,7.46,0,0,0-3.84,2.41h0a7.88,7.88,0,0,0,1.13,11.08,18.54,18.54,0,0,0,9.37,3.66l-3.21,3.79a2.6,2.6,0,0,0,.3,3.67l.6.51a2.61,2.61,0,0,0,3.68-.3l1.73-2,17,14.37a6.71,6.71,0,0,0,7.74.68l2.65,2.25a2.26,2.26,0,1,0,2.93-3.44l-2.66-2.25a6.73,6.73,0,0,0-1.94-7.53l-17-14.37,1.74-2a2.6,2.6,0,0,0-.31-3.67Z"/></g><g id="elements"><path class="cls-4" d="M250.14,375.92,206.82,332.6a5.5,5.5,0,0,1,0-7.78l24.64-24.64a5.5,5.5,0,0,1,7.78,0l43.32,43.32a5.5,5.5,0,0,1,0,7.78l-24.64,24.64A5.5,5.5,0,0,1,250.14,375.92Z"/><path class="cls-5" d="M270.24,363.6l-13.66,13.66a3.44,3.44,0,0,1-4.84.26L205.22,331a3.44,3.44,0,0,1,.25-4.84l13.67-13.66Z"/><path class="cls-6" d="M235,320.8a6.41,6.41,0,1,1,6.41-6.4A6.41,6.41,0,0,1,235,320.8Z"/><path class="cls-7" d="M228.59,314.4a6.41,6.41,0,0,0,12.81,0Z"/><path class="cls-6" d="M235,318.2a3.81,3.81,0,1,1,3.81-3.8A3.8,3.8,0,0,1,235,318.2Z"/><path class="cls-6" d="M251.67,337.47a6.4,6.4,0,1,1,6.4-6.4A6.4,6.4,0,0,1,251.67,337.47Z"/><path class="cls-7" d="M245.26,331.07a6.41,6.41,0,0,0,12.81,0Z"/><path class="cls-6" d="M251.67,334.88a3.81,3.81,0,1,1,3.8-3.81A3.81,3.81,0,0,1,251.67,334.88Z"/><path class="cls-6" d="M268.34,354.15a6.41,6.41,0,1,1,6.41-6.4A6.4,6.4,0,0,1,268.34,354.15Z"/><path class="cls-7" d="M261.94,347.75a6.41,6.41,0,0,0,12.81,0Z"/><path class="cls-6" d="M268.34,351.55a3.81,3.81,0,1,1,3.81-3.8A3.8,3.8,0,0,1,268.34,351.55Z"/><path class="cls-6" d="M221,334.75a6.4,6.4,0,1,0-6.41-6.4A6.4,6.4,0,0,0,221,334.75Z"/><path class="cls-7" d="M227.44,328.35a6.41,6.41,0,0,1-12.81,0Z"/><path class="cls-6" d="M221,332.16a3.81,3.81,0,1,0-3.81-3.81A3.81,3.81,0,0,0,221,332.16Z"/><path class="cls-6" d="M237.71,351.43a6.41,6.41,0,1,0-6.4-6.4A6.41,6.41,0,0,0,237.71,351.43Z"/><path class="cls-7" d="M244.12,345a6.41,6.41,0,0,1-12.81,0Z"/><path class="cls-6" d="M237.71,348.83a3.81,3.81,0,1,0-3.8-3.8A3.81,3.81,0,0,0,237.71,348.83Z"/><path class="cls-6" d="M254.39,368.1a6.4,6.4,0,1,0-6.41-6.4A6.4,6.4,0,0,0,254.39,368.1Z"/><path class="cls-7" d="M260.79,361.7a6.41,6.41,0,0,1-12.81,0Z"/><path class="cls-6" d="M254.39,365.51a3.81,3.81,0,1,0-3.81-3.81A3.81,3.81,0,0,0,254.39,365.51Z"/><path class="cls-8" d="M429.35,325.92a8.5,8.5,0,1,1,0-12A8.51,8.51,0,0,1,429.35,325.92Z"/><path class="cls-9" d="M417.32,325.92a8.5,8.5,0,0,0,12-12Z"/><path class="cls-8" d="M426.91,323.49a5.06,5.06,0,1,1,0-7.15A5.06,5.06,0,0,1,426.91,323.49Z"/><path class="cls-8" d="M439.42,154.66a10.59,10.59,0,1,1,0-15A10.57,10.57,0,0,1,439.42,154.66Z"/><path class="cls-9" d="M424.45,154.66a10.59,10.59,0,1,0,15-15Z"/><path class="cls-8" d="M436.38,151.62a6.29,6.29,0,1,1,0-8.9A6.29,6.29,0,0,1,436.38,151.62Z"/><circle class="cls-6" cx="315.69" cy="378.4" r="10.59"/><path class="cls-7" d="M308.2,385.89a10.59,10.59,0,0,0,15-15Z"/><path class="cls-6" d="M320.13,382.85a6.29,6.29,0,1,1,0-8.9A6.28,6.28,0,0,1,320.13,382.85Z"/><path class="cls-6" d="M532.62,289a9,9,0,1,1,0-12.78A9,9,0,0,1,532.62,289Z"/><path class="cls-7" d="M519.83,289a9,9,0,0,0,12.79-12.78Z"/><path class="cls-6" d="M530,286.37a5.37,5.37,0,1,1,0-7.6A5.36,5.36,0,0,1,530,286.37Z"/><circle class="cls-6" cx="414.35" cy="98.57" r="9.2"/><path class="cls-7" d="M407.84,105.08a9.21,9.21,0,1,0,13-13Z"/><path class="cls-6" d="M418.22,102.44a5.47,5.47,0,1,1,0-7.74A5.47,5.47,0,0,1,418.22,102.44Z"/><path class="cls-4" d="M563.8,97.61l-13.92,20.65A6.43,6.43,0,0,1,541,120l-.89-.6a6.44,6.44,0,0,1-1.74-8.93l13.92-20.65a6.44,6.44,0,0,1,8.93-1.74l.89.6A6.44,6.44,0,0,1,563.8,97.61Z"/><path class="cls-6" d="M556.84,107.94l6.66-9.89a7,7,0,0,0-1.89-9.67h0a7,7,0,0,0-9.67,1.89l-6.66,9.88Z"/><path class="cls-5" d="M561.61,88.38a7,7,0,0,1,1.88,9.68l-13.31,19.76a7,7,0,0,1-9.68,1.88Z"/><path class="cls-7" d="M561.61,88.38a7,7,0,0,1,1.88,9.68l-6.65,9.87L551.06,104Z"/><path class="cls-10" d="M418.08,351.66a21.77,21.77,0,0,0-42.14,7.65,21.76,21.76,0,1,0-37.61,14.89l0,0,.95.95.07.07,36.57,36.57,36.65-36.64,1-1a21.79,21.79,0,0,0,4.52-22.54Z"/><path class="cls-11" d="M418.08,351.66a21.77,21.77,0,0,0-42.14,7.65,21.71,21.71,0,0,0-.17-2.69v55l.17.17,36.65-36.64,1-1a21.79,21.79,0,0,0,4.52-22.54Z"/><path class="cls-4" d="M378.55,387.88h-.16a1.31,1.31,0,0,1-1.07-.81l-9-22-8.57,15.52a1.33,1.33,0,0,1-1.17.69H333.88a1.33,1.33,0,1,1,0-2.66h23.89l9.54-17.27a1.33,1.33,0,0,1,2.4.13l9.17,22.34,8.65-11.91a1.34,1.34,0,0,1,1.25-.54,1.36,1.36,0,0,1,1.07.84l3.49,9,2.75-4a1.33,1.33,0,0,1,1.1-.59h21.66a1.34,1.34,0,1,1,0,2.67h-21l-3.78,5.55a1.33,1.33,0,0,1-2.34-.26l-3.53-9-8.62,11.86A1.35,1.35,0,0,1,378.55,387.88Z"/><rect class="cls-4" x="294.69" y="91.5" width="55.48" height="66.95" rx="5.13"/><path class="cls-5" d="M350.17,95.55V154.4a4,4,0,0,1-4.05,4.06H322.26v-67h23.86A4,4,0,0,1,350.17,95.55Z"/><path class="cls-12" d="M326.18,89.82a3.92,3.92,0,0,0-7.83,0h-6.8a.9.9,0,0,0-.9.91v3.06a2.74,2.74,0,0,0,2.74,2.75h17.74a2.75,2.75,0,0,0,2.75-2.75V90.73a.91.91,0,0,0-.9-.91Z"/><rect class="cls-11" x="301.38" y="105.54" width="9.76" height="2.86"/><rect class="cls-11" x="301.38" y="105.54" width="9.76" height="2.86" transform="translate(413.23 -199.29) rotate(90)"/><rect class="cls-11" x="315.48" y="104.11" width="26.73" height="5.73"/><rect class="cls-9" x="301.66" y="120.53" width="41.21" height="2.37"/><rect class="cls-9" x="301.66" y="129.55" width="41.21" height="2.37"/><rect class="cls-9" x="301.66" y="138.57" width="41.21" height="2.37"/><rect class="cls-9" x="301.66" y="147.59" width="23.92" height="2.37"/><path class="cls-12" d="M499.34,259a19.63,19.63,0,0,1-5.88-27.08l9.73-15.13,3.22,2.08L496.69,234a15.75,15.75,0,1,0,26.5,17l4.28-6.65a13.43,13.43,0,0,1,18.56-4l3.36,2.16-2.07,3.23L544,243.54a9.61,9.61,0,0,0-13.26,2.88l-4.28,6.66A19.62,19.62,0,0,1,499.34,259Z"/><path class="cls-12" d="M504.13,176.6h6.14a2.6,2.6,0,0,1,2.6,2.6v.43a2.6,2.6,0,0,1-2.6,2.6h-6.13a0,0,0,0,1,0,0V176.6A0,0,0,0,1,504.13,176.6Z" transform="translate(177.73 -246.43) rotate(32.73)"/><path class="cls-12" d="M533.81,195.68h6.14a2.6,2.6,0,0,1,2.6,2.6v.43a2.61,2.61,0,0,1-2.61,2.61h-6.13a0,0,0,0,1,0,0v-5.64A0,0,0,0,1,533.81,195.68Z" transform="translate(883.53 656.51) rotate(-147.26)"/><rect class="cls-8" x="500.57" y="174.41" width="4.84" height="19.93" transform="translate(179.57 -242.7) rotate(32.73)"/><rect class="cls-8" x="533.54" y="195.6" width="4.84" height="19.93" transform="translate(196.26 -257.16) rotate(32.73)"/><path class="cls-9" d="M503,220.62a23,23,0,0,1-6.89-31.71l5.65,3.63a16.23,16.23,0,0,0,27.31,17.56l5.65,3.63A23,23,0,0,1,503,220.62Z"/><path class="cls-8" d="M555.33,250.58a9.54,9.54,0,1,1-.43-13.48A9.54,9.54,0,0,1,555.33,250.58Z"/><path class="cls-9" d="M554.9,237.1l-13,13.91a9.54,9.54,0,0,0,13-13.91Z"/><path class="cls-8" d="M552.62,248a5.82,5.82,0,1,1-.26-8.22A5.81,5.81,0,0,1,552.62,248Z"/><path class="cls-12" d="M281,130.16a19.61,19.61,0,0,1-27.62-2.25L241.77,114.2l2.92-2.48,11.65,13.71a15.75,15.75,0,0,0,24-20.39l-5.12-6a13.43,13.43,0,0,1,1.54-18.93l3.05-2.59,2.48,2.93L279.25,83a9.62,9.62,0,0,0-1.1,13.53l5.13,6A19.61,19.61,0,0,1,281,130.16Z"/><path class="cls-12" d="M203.22,95.43h6.14A2.6,2.6,0,0,1,212,98v.43a2.61,2.61,0,0,1-2.61,2.61h-6.13a0,0,0,0,1,0,0V95.43A0,0,0,0,1,203.22,95.43Z" transform="translate(-14.24 157.75) rotate(-40.34)"/><path class="cls-12" d="M230.11,72.59h6.14a2.6,2.6,0,0,1,2.6,2.6v.43a2.6,2.6,0,0,1-2.6,2.6h-6.13a0,0,0,0,1,0,0V72.59a0,0,0,0,1,0,0Z" transform="translate(462.02 -18.92) rotate(139.65)"/><rect class="cls-8" x="208.31" y="95" width="4.84" height="19.93" transform="translate(-17.83 161.4) rotate(-40.35)"/><rect class="cls-8" x="238.18" y="69.63" width="4.84" height="19.93" transform="translate(5.68 174.66) rotate(-40.34)"/><path class="cls-9" d="M245.4,115.52a23,23,0,0,1-32.34-2.63l5.12-4.35a16.23,16.23,0,0,0,24.74-21L248,83.17A23,23,0,0,1,245.4,115.52Z"/><path class="cls-8" d="M290.56,79.12a9.53,9.53,0,1,1-9.32-9.74A9.52,9.52,0,0,1,290.56,79.12Z"/><path class="cls-9" d="M281.24,69.38l-.41,19.06a9.53,9.53,0,0,0,.41-19.06Z"/><path class="cls-8" d="M286.85,79a5.82,5.82,0,1,1-5.69-5.94A5.82,5.82,0,0,1,286.85,79Z"/><rect class="cls-4" x="220.54" y="139.24" width="34.58" height="15.87" rx="2.71"/><path class="cls-8" d="M253.09,139.24h-15.2v15.87h15.2a2,2,0,0,0,2-2V141.27A2,2,0,0,0,253.09,139.24Z"/><rect class="cls-9" x="224.79" y="155.1" width="26.07" height="3.3"/><path class="cls-10" d="M264.75,173.69V212.8a15.29,15.29,0,0,1-15.3,15.31H226.22a15.28,15.28,0,0,1-15.3-15.31V173.69c0-.47,0-.91.06-1.39a15.32,15.32,0,0,1,15.24-13.91h23.23a15.3,15.3,0,0,1,15.23,13.91C264.72,172.78,264.75,173.22,264.75,173.69Z"/><path class="cls-11" d="M264.75,173.7v39.1a15.27,15.27,0,0,1-15.3,15.3H237.89V158.39h11.56a15.32,15.32,0,0,1,15.24,13.91C264.72,172.78,264.75,173.22,264.75,173.7Z"/><path class="cls-4" d="M264.75,173.69v17.86H210.92V173.69c0-.47,0-.91.06-1.39h53.7C264.72,172.78,264.75,173.22,264.75,173.69Z"/><path class="cls-8" d="M264.75,173.7v17.85H237.89V172.3h26.8C264.72,172.78,264.75,173.22,264.75,173.7Z"/><rect class="cls-11" x="232.93" y="180.47" width="9.93" height="2.91"/><rect class="cls-11" x="232.93" y="180.47" width="9.92" height="2.91" transform="translate(419.81 -55.96) rotate(90)"/><path class="cls-4" d="M315.23,307.51l-20.94,20.93-32.78-32.78a5.63,5.63,0,0,1,0-8l13-13a5.63,5.63,0,0,1,7.95,0Z"/><path class="cls-5" d="M281.25,276.58l30.92,30.93-17.88,17.87-30.92-30.92a3.92,3.92,0,0,1,0-5.55l12.31-12.32A3.94,3.94,0,0,1,281.25,276.58Z"/><rect class="cls-12" x="277.89" y="298.69" width="25.27" height="10.11" transform="translate(-129.68 294.4) rotate(-45)"/><rect class="cls-9" x="300.27" y="303.36" width="6.77" height="27.01" transform="translate(-135.12 307.52) rotate(-45)"/><path class="cls-4" d="M316.82,307.71,294.49,330a3.16,3.16,0,0,1-4.48,0l-.37-.37a3.18,3.18,0,0,1,0-4.48L312,302.86a3.16,3.16,0,0,1,4.48,0l.37.37A3.16,3.16,0,0,1,316.82,307.71Z"/><path class="cls-5" d="M271.62,277.59l-7.24,7.24a.13.13,0,0,1-.18,0L261,281.65a1.69,1.69,0,0,1,0-2.39l5-5a1.7,1.7,0,0,1,2.4,0l3.18,3.19A.11.11,0,0,1,271.62,277.59Z"/><path class="cls-9" d="M266,274.24l-2.41,2.41,4.47,4.47,3.61-3.62-3.27-3.26A1.68,1.68,0,0,0,266,274.24Z"/><path class="cls-4" d="M264.35,275.93l-1.63,1.63-11.18-11.18a1.06,1.06,0,0,1,0-1.51l.12-.12a1.05,1.05,0,0,1,1.5,0Z"/><path class="cls-10" d="M281.25,276.58l14.65,14.65L278,309.11l-14.65-14.65a3.92,3.92,0,0,1,0-5.55l12.31-12.32A3.94,3.94,0,0,1,281.25,276.58Z"/><path class="cls-11" d="M275.69,276.59l-6.06,6.06,17.42,17.43,8.85-8.85-14.65-14.65A3.94,3.94,0,0,0,275.69,276.59Z"/><path class="cls-4" d="M320.47,324l-9.69,9.69a3.18,3.18,0,0,1-4.48,0l-.37-.37a3.18,3.18,0,0,1,0-4.48l9.69-9.69a3.16,3.16,0,0,1,4.48,0l.37.37A3.16,3.16,0,0,1,320.47,324Z"/><path class="cls-7" d="M240.67,270.16l.89-1.83A12.26,12.26,0,0,0,235.87,252L197.52,233.4a12.24,12.24,0,0,0-16.36,5.69l-.89,1.83A12.26,12.26,0,0,0,186,257.29l38.35,18.56A12.24,12.24,0,0,0,240.67,270.16Z"/><rect class="cls-6" x="200.92" y="241.36" width="20" height="26.54" rx="7.28" transform="translate(531.99 175.69) rotate(115.82)"/><path class="cls-13" d="M224,258l-2.37,4.89a7.27,7.27,0,0,1-9.72,3.38L201.17,261a7.26,7.26,0,0,1-3.65-4l26.94-4.29A7.23,7.23,0,0,1,224,258Z"/><rect class="cls-6" x="199.94" y="246.92" width="21.94" height="15.4" rx="4.28" transform="translate(132 -66.45) rotate(25.83)"/><path class="cls-13" d="M190.82,241.09a1.55,1.55,0,1,0-.72-2.07A1.55,1.55,0,0,0,190.82,241.09Z"/><path class="cls-13" d="M186.82,249.36a1.55,1.55,0,1,0-.72-2.07A1.54,1.54,0,0,0,186.82,249.36Z"/><path class="cls-13" d="M194.22,247.84a1.55,1.55,0,1,0-.72-2.07A1.54,1.54,0,0,0,194.22,247.84Z"/><path class="cls-13" d="M234.12,262.47a1.55,1.55,0,1,1,2.07-.72A1.55,1.55,0,0,1,234.12,262.47Z"/><path class="cls-13" d="M230.12,270.74a1.54,1.54,0,1,1,2.06-.72A1.55,1.55,0,0,1,230.12,270.74Z"/><path class="cls-13" d="M226.72,264a1.55,1.55,0,1,1,2.07-.72A1.54,1.54,0,0,1,226.72,264Z"/><path class="cls-7" d="M369.31,184.63l-1.66-1.18a12.26,12.26,0,0,1-2.84-17.09L389.6,131.7a12.26,12.26,0,0,1,17.09-2.84l1.65,1.19a12.24,12.24,0,0,1,2.84,17.09L386.4,181.8A12.25,12.25,0,0,1,369.31,184.63Z"/><rect class="cls-6" x="378" y="143.48" width="20" height="26.54" rx="7.28" transform="translate(163.59 -196.46) rotate(35.57)"/><path class="cls-13" d="M399.61,157.69l-7,9.75a7.27,7.27,0,0,1-10.15,1.68L378.07,166a7.23,7.23,0,0,1-2.89-4.45l25.76-8.68A7.22,7.22,0,0,1,399.61,157.69Z"/><rect class="cls-6" x="377.02" y="149.05" width="21.95" height="15.4" rx="4.28" transform="translate(741.2 -67.67) rotate(125.57)"/><path class="cls-13" d="M399.16,135.24a1.54,1.54,0,0,1-2.16.36,1.54,1.54,0,1,1,1.8-2.51A1.53,1.53,0,0,1,399.16,135.24Z"/><path class="cls-13" d="M406.63,140.59a1.54,1.54,0,1,1-2.51-1.8,1.54,1.54,0,1,1,2.51,1.8Z"/><path class="cls-13" d="M399.41,142.8a1.56,1.56,0,0,1-2.16.36,1.55,1.55,0,1,1,2.16-.36Z"/><path class="cls-13" d="M371.38,174.75a1.55,1.55,0,1,0-2.16.35A1.54,1.54,0,0,0,371.38,174.75Z"/><path class="cls-13" d="M378.85,180.09a1.54,1.54,0,1,0-2.15.36A1.53,1.53,0,0,0,378.85,180.09Z"/><path class="cls-13" d="M378.61,172.54a1.56,1.56,0,0,0-.36-2.16,1.55,1.55,0,1,0-1.8,2.52A1.56,1.56,0,0,0,378.61,172.54Z"/><path class="cls-12" d="M499.68,96.23H483.13a7.2,7.2,0,0,0-7.2,7.21V108a7.2,7.2,0,0,0,7.2,7.21h16.55a7.21,7.21,0,0,0,7.21-7.21v-4.54A7.21,7.21,0,0,0,499.68,96.23ZM501.47,108a1.79,1.79,0,0,1-1.79,1.79H483.13a1.79,1.79,0,0,1-1.79-1.79v-4.54a1.79,1.79,0,0,1,1.79-1.79h16.55a1.79,1.79,0,0,1,1.79,1.79Z"/><rect class="cls-4" x="451.15" y="105.71" width="80.15" height="56.45" rx="7.2"/><path class="cls-5" d="M523.51,105.71h-32.1v56.45h32.1a7.79,7.79,0,0,0,7.79-7.79V113.51A7.8,7.8,0,0,0,523.51,105.71Z"/><rect class="cls-11" x="473.17" y="128.48" width="37.19" height="10.91"/><rect class="cls-11" x="473.17" y="128.48" width="37.19" height="10.91" transform="translate(625.7 -357.83) rotate(90)"/><path class="cls-4" d="M551.48,315.58l14.89-27.83a6,6,0,0,0-10.51-5.62L541,310a8.39,8.39,0,1,0,10.52,5.63Z"/><path class="cls-5" d="M549.28,321.09a6.62,6.62,0,1,1-7.13-9.62L557.41,283a4.2,4.2,0,0,1,7.4,4l-15.26,28.51A6.63,6.63,0,0,1,549.28,321.09Z"/><path class="cls-10" d="M549.28,321.09a6.62,6.62,0,1,1-7.13-9.62l8.63-16.11,7.4,4-8.63,16.11A6.63,6.63,0,0,1,549.28,321.09Z"/><path class="cls-11" d="M549.28,321.09a6.64,6.64,0,0,1-9,2.72l14.17-26.47,3.7,2-8.63,16.11A6.63,6.63,0,0,1,549.28,321.09Z"/><rect class="cls-11" x="473.18" y="330.11" width="7.67" height="15.43" rx="2.94"/><path class="cls-4" d="M500,333.73l-12.81,3.74a35.73,35.73,0,0,1-20,0l-12.81-3.74a8.19,8.19,0,0,1-5.88-7.85v-43.1a8.18,8.18,0,0,1,8.18-8.18h41.05a8.18,8.18,0,0,1,8.18,8.18v43.1A8.17,8.17,0,0,1,500,333.73Z"/><path class="cls-5" d="M477.2,335.66a32.26,32.26,0,0,1-9.11-1.31l-12.8-3.74a5,5,0,0,1-3.55-4.73V282.77a4.93,4.93,0,0,1,4.93-4.92h41.05a4.93,4.93,0,0,1,4.93,4.92v43.11a5,5,0,0,1-3.54,4.73l-12.81,3.74A32.25,32.25,0,0,1,477.2,335.66Z"/><path class="cls-10" d="M451.74,304.21v21.67a5,5,0,0,0,3.55,4.73l12.8,3.74a32.3,32.3,0,0,0,18.21,0l12.81-3.74a5,5,0,0,0,3.54-4.73V304.21Z"/><path class="cls-11" d="M477,304.21v31.44h.18a32.25,32.25,0,0,0,9.1-1.31l12.81-3.74a5,5,0,0,0,3.54-4.73V304.21Z"/><path class="cls-11" d="M492.05,374.07A16.13,16.13,0,0,1,475.94,358v-14h2.16v14A13.95,13.95,0,0,0,506,358v-4a16.13,16.13,0,0,1,16.11-16.11h2V340h-2a14,14,0,0,0-13.94,13.94v4A16.13,16.13,0,0,1,492.05,374.07Z"/><path class="cls-6" d="M577.49,178.11c.09,4.43-3.19,12.59-7.45,12.68s-7.9-7.91-8-12.34a7.73,7.73,0,1,1,15.45-.34Z"/><path class="cls-7" d="M569.59,170.26h-.05l.45,20.53h0c4.26-.09,7.54-8.25,7.45-12.68A7.87,7.87,0,0,0,569.59,170.26Z"/><path class="cls-5" d="M563.32,192.1l.52,24.06a6.75,6.75,0,0,0,4.62,6.26l.07,3.47a2.26,2.26,0,0,0,4.52-.09l-.07-3.48a6.74,6.74,0,0,0,4.34-6.45l-.52-24.06Z"/><path class="cls-9" d="M569.86,192l.78,36.13h.2a2.25,2.25,0,0,0,2.21-2.3l-.07-3.48a6.74,6.74,0,0,0,4.34-6.45l-.52-24.06Z"/><rect class="cls-13" x="558" y="187.79" width="24.06" height="6" rx="2.77" transform="translate(-3.99 12.35) rotate(-1.24)"/><polyline class="cls-14" points="224.46 252.71 197.52 257 189.94 258.21"/><path class="cls-4" d="M192.42,172.52h0a8.75,8.75,0,0,0-11.76,3.8l-11.77,23a8.75,8.75,0,0,0,3.8,11.76h0a8.75,8.75,0,0,0,11.76-3.8l11.77-23A8.75,8.75,0,0,0,192.42,172.52Z"/><path class="cls-5" d="M192.41,172.52l-19.72,38.57a8.74,8.74,0,0,1-3.8-11.76l11.77-23A8.74,8.74,0,0,1,192.41,172.52Z"/><path class="cls-10" d="M190.33,195.78l-5.89,11.51a8.73,8.73,0,1,1-15.55-8l5.88-11.51Z"/><path class="cls-11" d="M182.55,191.8l-9.86,19.29a8.74,8.74,0,0,1-3.8-11.76l5.88-11.51Z"/><path class="cls-4" d="M356.11,103h0a7.2,7.2,0,0,0,.31,10.18L372,127.81a7.21,7.21,0,0,0,10.19-.31h0a7.22,7.22,0,0,0-.32-10.19l-15.53-14.6A7.2,7.2,0,0,0,356.11,103Z"/><path class="cls-5" d="M356.11,103l26,24.47a7.22,7.22,0,0,1-10.19.32l-15.53-14.6A7.22,7.22,0,0,1,356.11,103Z"/><path class="cls-10" d="M374.05,110l7.77,7.31a7.14,7.14,0,0,1,2.27,5A7.21,7.21,0,0,1,372,127.82l-7.77-7.31Z"/><path class="cls-11" d="M369.12,115.26l13,12.24a7.22,7.22,0,0,1-10.19.32l-7.77-7.31Z"/><path class="cls-4" d="M435.27,361.61h0a7.65,7.65,0,0,0-.53,10.81l15.18,16.77a7.66,7.66,0,0,0,10.81.54h0a7.65,7.65,0,0,0,.53-10.81l-15.18-16.77A7.66,7.66,0,0,0,435.27,361.61Z"/><path class="cls-5" d="M435.27,361.62l25.46,28.11a7.67,7.67,0,0,1-10.81-.53l-15.18-16.78A7.65,7.65,0,0,1,435.27,361.62Z"/><path class="cls-6" d="M453.67,370.54l7.59,8.39a7.59,7.59,0,0,1,2,5.5,7.65,7.65,0,0,1-13.31,4.77l-7.59-8.4Z"/><path class="cls-7" d="M448,375.67l12.73,14.06a7.67,7.67,0,0,1-10.81-.53l-7.59-8.4Z"/></g></g></g></svg>